<?xml version="1.0"?>
<svg version="1.1" xmlns="http://www.w3.org/2000/svg" xmlns:xlink="http://www.w3.org/1999/xlink" width="512" height="512">
    <desc iVinci="yes" version="4.6" gridStep="16" showGrid="yes" snapToGrid="no" codePlatform="0"/>
    <g id="Layer1" name="Layer 1" opacity="1">
        <g id="Shape1">
            <desc shapeID="1" type="0" basicInfo-basicType="0" basicInfo-roundedRectRadius="12" basicInfo-polygonSides="6" basicInfo-starPoints="5" bounding="rect(-428.012,-427.744,856.023,855.488)" text="" font-familyName="" font-pixelSize="20" font-bold="0" font-underline="0" font-alignment="1" strokeStyle="0" markerStart="0" markerEnd="0" shadowEnabled="0" shadowOffsetX="0" shadowOffsetY="2" shadowBlur="4" shadowOpacity="160" blurEnabled="0" blurRadius="4" transform="matrix(0.41152,0,0,0.41145,255.978,216.303)" pers-center="0,0" pers-size="0,0" pers-start="0,0" pers-end="0,0" locked="0" mesh="" flag=""/>
            <path id="shapePath1" d="M240.347,40.5722 C189.36,44.7278 144.339,69.0856 114.627,108.667 C80.1011,154.668 70.6361,213.998 89.1134,269.421 C104.34,315.215 137.097,352.658 180.636,374.093 C199.03,383.145 217.837,388.741 238.866,391.375 C245.944,392.239 264.874,392.609 272.363,391.992 C296.19,390.017 318.701,383.639 339.194,373.024 C354.915,364.878 368.494,354.961 381.128,342.371 C388.412,335.088 392.198,330.809 397.424,323.856 C429.811,280.694 440.181,225.231 425.737,172.524 C406.395,101.96 345.902,49.912 273.268,41.3539 C265.244,40.4075 247.631,39.9961 240.347,40.5722 M253.31,60.4863 L253.31,74.2288 L249.73,74.4756 C231.088,75.7923 217.22,78.8782 202.322,85.0088 C185.944,91.7566 172.158,100.603 158.043,113.563 L155.574,115.827 L145.409,105.663 C139.771,100.068 135.203,95.295 135.203,95.0481 C135.203,94.5133 143.31,87.1072 148.455,82.9927 C172.282,63.9013 202.446,51.3521 233.145,47.8137 C240.84,46.9085 241.294,46.9085 247.672,46.8262 L253.31,46.7439 L253.31,60.4863 M274.503,47.9782 C309.153,52.4219 341.334,67.1518 367.877,90.6868 C370.511,93.0321 372.65,95.0481 372.65,95.2127 C372.65,95.3774 368.494,99.6564 363.433,104.717 L354.256,113.893 L351.211,111.095 C332.322,93.7315 307.136,81.3881 280.677,76.5329 L276.561,75.7923 L278.618,75.5043 C282.857,74.9694 283.556,74.2699 281.005,73.2001 C278.824,72.295 274.462,72.3361 272.651,73.2824 C270.841,74.2288 265.532,74.8048 261.664,74.4756 L258.66,74.1877 L258.66,60.4041 L258.66,46.6205 L263.515,46.9085 C266.149,47.073 271.129,47.5668 274.503,47.9782 M253.31,93.6081 L253.31,106.733 L250.553,107.022 C239.36,108.009 234.133,108.873 226.726,110.972 C210.018,115.621 195.162,123.85 182.076,135.658 L178.577,138.868 L169.443,129.733 C164.421,124.714 160.307,120.394 160.307,120.187 C160.307,119.653 167.59,113.111 172.24,109.49 C191.746,94.1019 217.59,83.651 241.787,81.3469 C247.837,80.7708 249.401,80.6474 251.582,80.5651 L253.31,80.4828 L253.31,93.6081 M261.54,81.5114 C264.504,82.7458 265.203,82.8281 264.215,81.7172 C263.475,80.8943 263.515,80.8943 265.285,80.8943 C272.775,80.8943 289.483,84.2682 300.017,87.9301 C305.779,89.905 311.746,92.4149 311.746,92.8263 C311.746,93.2789 310.841,93.567 307.836,94.0607 C303.145,94.8013 302.116,95.7065 303.433,97.846 C303.885,98.5043 306.396,101.261 309.03,103.936 C311.993,106.939 313.803,109.12 313.803,109.613 C313.803,110.107 314.544,111.342 315.45,112.371 C316.355,113.399 317.096,114.51 317.096,114.798 C317.096,115.085 317.342,115.621 317.631,116.032 C318.166,116.773 318.289,116.773 320.964,115.867 L323.762,114.962 L326.396,117.555 C329.112,120.27 329.606,121.216 328.247,121.216 C326.931,121.216 326.89,121.875 328.124,122.698 C329.564,123.644 335.902,128.911 336.231,129.446 C336.355,129.693 336.972,129.733 337.59,129.61 C338.495,129.404 338,130.063 335.038,133.066 L331.375,136.811 L329.688,135.37 C315.079,122.862 301.293,115.332 284.503,110.765 C278.906,109.243 271.046,107.804 266.067,107.432 C264.38,107.309 261.993,107.104 260.841,106.98 L258.66,106.775 L258.66,93.6081 C258.66,86.4077 258.742,80.4828 258.865,80.4828 C258.989,80.4828 260.182,80.9354 261.54,81.5114 M150.059,121.875 C130.183,143.6 117.096,174.088 114.545,204.576 L114.052,210.377 L112.323,209.143 C111.376,208.485 110.389,208.073 110.142,208.196 C109.442,208.65 109.607,210.049 110.554,211.612 C111.624,213.299 111.336,213.752 109.854,212.764 C108.784,212.064 108.702,212.064 108.208,212.764 C107.715,213.463 107.632,213.422 107.22,212.394 C107.015,211.776 106.809,211.036 106.809,210.748 C106.809,209.802 105.492,206.387 105.163,206.387 C104.957,206.387 104.669,206.551 104.545,206.798 C104.175,207.416 103.517,207.292 103.517,206.592 C103.517,205.646 102.611,203.918 102.076,203.918 C101.829,203.918 100.801,204.741 99.8129,205.77 C98.5372,207.086 97.5084,207.703 96.4796,207.868 C94.7512,208.156 93.887,209.349 93.4344,212.023 L93.1463,213.793 L89.6483,213.793 L86.1093,213.793 L86.3561,206.674 C87.385,179.807 94.957,153.186 108.249,130.021 C114.134,119.777 122.981,107.639 129.401,100.932 L131.294,98.998 L141.665,109.366 L152.035,119.735 L150.059,121.875 M384.791,108.05 C394.008,118.953 403.062,132.943 408.906,145.409 C418.577,165.941 423.967,186.843 425.531,210.172 L425.819,214.204 L411.786,214.204 L397.754,214.204 L397.754,210.912 C397.754,199.926 394.667,183.469 390.182,170.384 C383.885,151.952 373.186,133.848 360.84,120.723 C359.4,119.2 358.248,117.801 358.248,117.636 C358.248,117.473 362.362,113.193 367.424,108.132 L376.56,98.957 L379.194,101.755 C380.634,103.277 383.145,106.116 384.791,108.05 M339.482,109.284 C341.786,111.054 345.037,113.81 346.725,115.415 L349.812,118.254 L348.988,119.118 L348.125,119.982 L344.667,116.979 C342.445,115.085 340.634,113.069 339.688,111.547 C338.865,110.19 337.877,108.873 337.425,108.667 C335.778,107.804 334.174,105.993 335.038,105.993 C335.161,105.993 337.178,107.474 339.482,109.284 M253.31,125.66 L253.31,138.374 L248.701,138.868 C231.376,140.719 214.874,148.043 203.598,158.823 L201.005,161.292 L192.199,152.487 C187.343,147.632 183.352,143.476 183.352,143.229 C183.352,142.982 185.162,141.213 187.385,139.279 C205.656,123.232 227.014,114.592 252.405,113.029 L253.31,112.988 L253.31,125.66 M265.656,113.605 C280.923,114.715 298.577,120.887 312.404,129.939 L317.014,132.943 L316.149,134.671 C315.326,136.357 315.326,136.357 316.108,137.386 C317.261,138.785 322.034,142.735 322.322,142.448 C322.692,142.118 324.091,142.982 324.091,143.558 C324.091,143.847 320.675,147.467 316.519,151.623 L308.988,159.152 L305.944,156.601 C294.297,146.808 279.071,140.431 263.475,138.868 L258.66,138.374 L258.66,125.66 L258.66,112.946 L260.429,113.152 C261.376,113.276 263.722,113.481 265.656,113.605 M174.709,142.735 C174.709,142.941 173.722,144.257 172.487,145.616 C163.187,156.313 155.245,171.084 151.047,185.526 C149.484,190.874 148.125,197.005 147.713,200.832 C147.467,203.054 147.261,203.466 145.656,204.988 C143.722,206.798 143.022,208.196 142.2,211.612 L141.706,213.793 L131.047,213.793 L120.389,213.793 L120.389,210.377 C120.389,203.506 121.994,192.603 124.298,183.346 C129.607,162.238 139.648,143.065 153.887,126.853 L156.314,124.055 L165.533,133.231 C170.595,138.251 174.709,142.571 174.709,142.735 M346.561,135.452 C348.125,136.275 350.264,137.386 351.376,137.921 C352.445,138.456 355.449,140.925 358.001,143.393 C360.593,145.862 363.062,148.002 363.516,148.167 C364.009,148.29 364.873,148.167 365.49,147.837 C366.437,147.343 366.725,146.768 367.177,144.669 C367.465,143.27 367.795,141.994 367.919,141.871 C368.618,141.172 370.305,142.982 372.527,146.808 C376.519,153.639 376.972,154.503 379.4,159.77 C386.601,175.61 391.581,196.306 391.581,210.584 L391.581,214.204 L378.412,214.204 L365.243,214.204 L365.243,211.529 C365.243,199.227 360.635,181.412 353.968,167.916 C349.194,158.371 344.791,151.828 336.601,142.283 L335.038,140.514 L338.947,136.604 C342.24,133.313 342.898,132.819 343.268,133.354 C343.557,133.724 345.037,134.671 346.561,135.452 M253.31,159.028 C253.31,175.198 253.474,174.294 250.841,174.294 C247.179,174.294 236.52,178.202 232.651,180.959 C231.417,181.823 231.376,181.823 230.841,181.082 C230.512,180.671 230.265,179.725 230.265,179.066 C230.224,177.009 228.865,174.541 226.766,172.812 C224.956,171.331 224.586,171.208 222.528,171.29 C220.759,171.373 219.894,171.166 218.537,170.344 C217.59,169.809 216.355,169.356 215.779,169.356 C215.203,169.356 214.627,169.068 214.504,168.739 C214.339,168.368 213.681,168.163 212.487,168.163 C209.195,168.204 207.344,167.67 206.15,166.434 L204.998,165.242 L206.027,164.172 C207.631,162.444 212.94,158.288 216.478,155.943 C226.643,149.319 240.759,144.587 251.376,144.299 L253.31,144.257 L253.31,159.028 M269.977,145.533 C278.66,147.261 288.124,151.128 295.45,155.943 C299.359,158.494 304.832,162.814 304.544,163.102 C304.462,163.225 303.433,162.896 302.322,162.403 C299.689,161.292 298.989,161.292 296.972,162.649 C295.779,163.431 295.285,164.007 295.285,164.748 C295.285,165.612 295.408,165.736 296.438,165.489 C299.359,164.789 301.129,164.707 301.499,165.282 C302.075,166.188 302.034,166.271 298.947,168.986 C296.52,171.125 295.738,171.578 293.969,171.866 C292.24,172.154 291.582,172.524 290.1,174.088 C288.248,175.98 287.919,177.05 288.783,177.914 C289.153,178.284 288.948,178.778 287.713,180.013 C285.45,182.317 283.968,182.441 280.182,180.671 C278.536,179.848 277.054,178.943 276.849,178.614 C276.684,178.244 275.779,177.914 274.832,177.832 C273.886,177.709 272.61,177.379 271.952,177.05 L270.799,176.433 L272.199,175.651 C272.94,175.24 273.968,174.581 274.503,174.211 C275.985,173.059 277.096,167.299 275.82,167.299 C275.491,167.299 274.421,167.833 273.433,168.533 C272.446,169.192 271.417,169.767 271.129,169.767 C270.841,169.767 270.388,170.179 270.141,170.673 C269.853,171.208 269.4,171.783 269.112,171.948 C268.783,172.154 268.66,172.689 268.783,173.389 C269.153,175.528 268.66,175.693 264.38,174.911 C262.24,174.541 260.1,174.129 259.606,174.047 L258.66,173.882 L258.66,158.988 L258.66,144.134 L262.281,144.422 C264.257,144.587 267.713,145.081 269.977,145.533 M337.63,153.269 C339.976,156.354 340.141,156.684 339.811,157.918 C339.482,159.111 339.317,159.275 338.289,159.152 L337.137,159.028 L338.412,160.51 C339.153,161.332 339.729,162.197 339.729,162.444 C339.729,163.102 338.207,161.621 337.219,160.016 C336.396,158.658 334.914,157.589 334.503,157.959 C334.132,158.371 339.029,163.802 340.223,164.337 C341.581,164.912 342.733,164.5 343.474,163.143 C343.885,162.321 343.968,162.321 344.791,163.637 C346.396,166.271 350.757,175.323 352.239,179.148 L353.721,182.975 L353.31,186.554 C352.816,190.34 352.651,190.874 352.239,189.764 C351.911,188.941 350.676,188.9 350.017,189.723 C349.729,190.052 349.359,191.739 349.194,193.467 C348.823,197.17 348.165,198.157 346.519,197.417 C345.573,196.965 345.491,196.718 345.491,194.372 C345.491,192.932 345.655,191.122 345.902,190.34 C346.272,189.105 346.149,188.735 345.202,187.336 C343.803,185.32 341.951,183.757 340.923,183.757 C339.976,183.757 339.482,184.868 339.112,187.583 C338.782,190.134 337.918,190.504 336.355,188.777 C334.914,187.131 334.873,186.226 336.231,186.226 C337.383,186.226 337.425,186.102 336.848,184.95 C336.56,184.415 335.984,184.168 335.038,184.168 C333.844,184.168 333.432,183.839 331.458,181.165 C328.989,177.873 326.19,175.733 323.721,175.323 C322.199,175.075 321.828,174.705 319.4,171.29 C317.919,169.192 315.82,166.476 314.668,165.2 L312.61,162.896 L319.893,155.655 C323.926,151.663 327.425,148.372 327.712,148.372 C327.96,148.372 328.207,148.167 328.207,147.878 C328.207,147.59 328.701,146.85 329.359,146.191 L330.47,144.999 L332.775,147.467 C334.05,148.825 336.231,151.417 337.63,153.269 M196.973,165.406 C196.808,165.653 195.821,166.888 194.833,168.122 C192.405,171.166 188.29,177.585 186.644,180.877 C185.697,182.769 184.669,184.086 183.145,185.32 C181.746,186.472 180.553,187.871 179.812,189.394 C178.825,191.286 178.249,191.903 176.52,192.768 C174.174,193.961 172.487,195.771 170.388,199.186 C169.031,201.449 168.989,201.614 169.606,202.766 C169.936,203.424 170.183,204.37 170.101,204.865 C169.977,205.687 169.73,205.77 166.891,205.81 C163.475,205.81 162.776,205.522 162.776,204.041 C162.776,203.506 162.529,202.56 162.199,201.943 C161.911,201.325 161.541,200.173 161.377,199.392 C161.089,197.829 160.1,196.1 159.442,196.1 C159.236,196.1 158.825,196.595 158.578,197.17 L158.084,198.24 L157.631,196.882 C157.261,195.813 156.891,195.442 156.067,195.359 C155.45,195.278 154.957,195.113 154.957,195.031 C154.957,194.907 155.409,193.015 155.985,190.793 C159.813,175.733 167.302,161.209 177.343,149.483 L179.359,147.055 L188.331,156.025 C193.845,161.497 197.179,165.159 196.973,165.406 M311.54,170.261 C313.392,172.36 317.919,178.819 317.919,179.396 C317.919,179.89 317.014,179.643 315.779,178.778 C315.12,178.284 314.503,177.997 314.38,178.12 C314.092,178.408 315.244,180.588 316.025,181.247 C316.396,181.576 316.684,182.07 316.684,182.399 C316.684,183.139 315.326,182.769 313.638,181.576 C312.569,180.835 312.528,180.671 313.104,180.3 C313.638,179.93 313.556,179.725 312.239,178.573 C310.964,177.502 310.799,177.174 311.252,176.68 C311.54,176.31 311.622,175.733 311.499,175.363 C311.334,174.911 311.581,174.294 312.199,173.635 L313.186,172.607 L312.158,171.825 C309.935,170.138 308.907,170.508 308.577,172.977 C308.371,174.458 308.248,174.623 307.59,174.294 C307.178,174.047 306.149,173.882 305.285,173.882 C302.281,173.882 302.24,173.347 304.956,170.591 C308.125,167.381 308.947,167.34 311.54,170.261 M255.943,181.37 C256.561,182.564 256.561,182.728 255.943,183.386 C255.368,184.045 255.285,184.703 255.533,187.254 C255.903,191.246 256.273,192.191 257.795,193.015 C259.689,193.961 260.718,193.837 260.718,192.603 C260.718,191.41 261.335,191.204 261.664,192.356 C261.788,192.85 262.363,193.179 263.557,193.385 C265.203,193.632 265.244,193.672 265.244,195.278 C265.244,196.8 265.367,196.965 266.479,197.17 C267.631,197.417 267.713,197.582 267.713,199.146 C267.713,200.708 268.948,203.506 269.607,203.506 C269.77,203.506 270.512,203.013 271.294,202.437 L272.651,201.408 L273.186,202.642 C273.68,203.836 273.763,203.876 274.627,203.259 C276.109,202.231 275.697,203.342 273.886,205.317 C272.651,206.634 272.24,207.456 272.24,208.485 C272.24,209.555 272.363,209.72 272.734,209.349 C273.763,208.32 274.133,208.855 274.133,211.283 L274.092,213.71 L272.158,213.875 C270.1,214.08 266.89,215.85 266.89,216.796 C266.89,217.125 266.273,217.66 265.573,218.03 C263.969,218.812 264.874,218.936 267.508,218.319 C268.825,218.03 269.235,218.072 269.607,218.524 C270.141,219.265 273.186,220.376 274.627,220.376 C275.203,220.376 276.067,220.828 276.643,221.445 C277.631,222.515 278.454,222.597 280.677,221.775 C281.458,221.487 281.458,221.528 280.8,222.269 C280.018,223.174 280.265,223.873 281.499,224.203 C282.034,224.326 281.787,224.408 280.882,224.449 C279.441,224.531 279.441,224.531 280.429,225.066 C281.417,225.601 281.417,225.643 280.018,225.56 C279.236,225.56 278.536,225.683 278.413,225.93 C278.043,226.712 282.446,228.688 285.08,228.934 L287.589,229.14 L286.025,229.922 C285.038,230.457 284.051,230.662 283.309,230.497 C282.281,230.292 282.157,230.374 282.24,231.197 C282.281,231.691 282.075,232.102 281.829,232.102 C281.54,232.102 280.84,232.801 280.265,233.625 C279.113,235.352 278.454,235.517 276.931,234.53 C276.19,233.995 275.779,233.953 275.45,234.283 C275.12,234.612 275.285,234.859 276.109,235.188 C276.767,235.435 277.919,236.176 278.742,236.834 C280.018,237.863 280.223,238.274 280.141,239.467 C280.018,240.537 280.223,241.031 280.8,241.401 C281.54,241.853 281.54,241.936 280.305,243.047 C279.236,243.993 278.948,244.076 278.413,243.622 C278.083,243.335 277.261,242.8 276.561,242.47 L275.327,241.813 L276.849,241.771 C278.865,241.771 279.523,240.661 278.66,238.932 C278.124,237.986 277.631,237.698 275.573,237.286 C274.215,237.04 272.651,236.916 272.076,237.081 C271.376,237.245 271.006,237.163 271.006,236.834 C271.006,236.587 270.759,236.423 270.512,236.546 C270.224,236.628 269.647,236.546 269.277,236.341 C268.825,236.134 268.536,236.134 268.536,236.381 C268.536,236.834 267.755,236.751 266.973,236.258 C266.561,236.011 266.519,236.217 266.726,236.998 C266.89,237.657 266.726,238.603 266.355,239.426 C265.821,240.578 265.532,243.582 265.614,247.737 C265.614,248.396 265.532,249.548 265.449,250.247 C265.244,251.44 265.079,251.522 262.61,251.975 C259.071,252.634 252.816,252.592 249.113,251.892 C243.104,250.741 237.178,247.861 232.158,243.664 C227.178,239.549 222.446,231.691 220.8,224.902 L219.977,221.405 L220.883,220.788 C221.376,220.458 222.158,219.841 222.61,219.429 C223.434,218.771 223.434,218.689 222.775,218.319 C221.705,217.66 221.87,217.29 223.434,216.344 C224.709,215.603 226.479,213.135 226.067,212.723 C225.985,212.641 224.627,212.476 223.105,212.394 C221.541,212.27 220.224,212.106 220.101,211.983 C219.524,211.406 220.676,208.526 222.199,206.839 C223.845,205.028 224.257,204.865 226.479,205.111 C227.014,205.152 228.578,208.156 228.618,209.143 C228.618,209.432 228.33,209.678 228.001,209.678 C227.631,209.678 227.384,210.049 227.384,210.707 L227.384,211.694 L228.742,210.954 C229.442,210.542 231.047,210.09 232.24,209.967 C234.092,209.76 234.545,209.843 235.244,210.542 C236.232,211.529 236.273,211.529 236.644,209.76 C236.849,208.732 236.767,208.444 236.273,208.444 C235.944,208.444 235.574,208.608 235.45,208.815 C235.327,209.02 234.874,209.102 234.462,208.978 C233.598,208.773 233.516,207.045 234.257,205.728 C234.545,205.235 234.627,204.741 234.462,204.576 C234.339,204.411 234.462,204.123 234.792,203.918 C235.902,203.219 236.026,203.506 235.162,204.947 C234.668,205.728 234.421,206.674 234.545,207.004 C234.874,207.95 236.808,207.744 237.713,206.674 C238.743,205.44 238.701,204.947 237.426,204.041 L236.314,203.219 L238.166,202.149 C239.195,201.572 240.347,200.585 240.717,200.009 C241.087,199.433 241.582,198.981 241.829,198.981 C242.076,198.981 243.228,198.692 244.421,198.364 C246.067,197.87 246.849,197.335 247.878,195.977 C248.824,194.784 249.154,193.961 248.989,193.344 C248.824,192.645 248.989,192.438 249.688,192.315 C250.306,192.233 250.635,191.903 250.635,191.369 C250.635,190.834 250.388,190.587 250.018,190.669 C249.688,190.751 249.976,190.217 250.676,189.435 C252.692,187.296 252.692,185.772 250.676,185.362 C250.1,185.197 250.1,185.073 250.923,184.25 C251.458,183.757 252.322,182.975 252.899,182.522 C254.503,181.247 253.227,181.576 251.17,182.934 C250.141,183.633 248.866,184.827 248.331,185.609 C247.796,186.39 247.055,187.048 246.685,187.048 C246.355,187.048 245.655,187.501 245.162,188.077 C244.463,188.859 243.845,189.105 242.569,189.105 C241.376,189.105 240.43,188.777 239.483,188.077 C238.743,187.501 237.878,187.048 237.549,187.048 C237.219,187.048 236.726,186.801 236.479,186.472 C235.532,185.362 244.586,181.452 250.306,180.465 C254.421,179.807 255.244,179.93 255.943,181.37 M197.754,184.086 C199.73,186.061 199.771,186.144 199.648,188.365 C199.525,189.97 199.195,191.081 198.372,192.315 C197.549,193.59 197.302,194.372 197.466,195.359 C197.59,196.347 197.261,197.458 196.191,199.598 C194.627,202.724 194.298,203.095 192.94,203.095 C191.953,203.095 189.113,204.329 189.113,204.741 C189.113,204.865 189.36,205.358 189.689,205.77 C190.182,206.469 190.429,206.51 192.57,206.017 C196.109,205.235 196.232,205.317 198.331,210.542 C198.825,211.818 199.236,212.146 201.005,212.764 C202.158,213.135 203.187,213.628 203.311,213.834 C203.475,214.04 199.607,214.204 193.68,214.204 L183.763,214.204 L183.763,212.888 C183.763,212.188 184.627,209.925 185.656,207.786 C187.837,203.466 188.413,200.38 187.302,199.433 C186.726,198.939 186.644,199.063 186.644,200.668 C186.644,202.354 185.368,205.975 184.792,205.975 C183.969,205.975 186.479,196.1 187.467,195.401 C188.455,194.701 189.277,192.233 188.99,190.834 C188.825,190.052 189.319,188.488 190.677,185.649 L192.57,181.617 L194.175,181.823 C195.409,181.987 196.232,182.522 197.754,184.086 M352.651,197.047 C352.486,200.338 352.528,202.395 352.816,202.931 C353.186,203.589 353.268,203.466 353.598,202.067 C354.873,196.758 355.367,194.866 355.86,193.632 L356.437,192.233 L357.136,195.936 C358.248,201.572 359.071,208.32 359.071,211.612 L359.071,214.616 L350.676,214.616 L342.281,214.616 L341.786,213.422 C341.375,212.353 341.458,211.9 342.445,209.76 C343.103,208.279 343.968,207.086 344.544,206.839 C345.655,206.345 345.737,205.564 344.874,203.876 C344.42,203.013 344.338,202.477 344.667,201.902 C345.326,200.626 347.178,199.392 348.412,199.392 C349.359,199.392 349.605,199.146 350.059,197.829 C350.305,197.005 350.882,195.813 351.293,195.236 C351.704,194.661 352.157,193.714 352.281,193.097 C352.856,190.957 352.939,192.027 352.651,197.047 M177.343,198.446 C178.702,199.063 178.866,199.063 179.607,198.404 C180.348,197.705 180.348,197.746 179.854,200.009 C179.319,202.149 178.742,206.387 178.167,211.818 L177.96,214.204 L174.463,214.204 C172.035,214.204 170.923,214.04 170.841,213.67 C170.8,213.422 170.43,212.229 170.018,211.036 C169.36,208.938 169.36,208.896 170.388,207.374 C171.17,206.222 171.417,205.317 171.417,203.63 C171.417,201.285 171.788,200.173 173.187,198.651 C174.174,197.582 175.409,197.499 177.343,198.446 M91.994,219.471 C91.994,219.636 91.7059,221.075 91.3768,222.639 C90.5949,226.26 90.5949,229.098 91.3356,232.843 C91.6648,234.489 92.1586,237.163 92.4055,238.768 C92.6936,240.414 93.0228,241.771 93.1463,241.771 C93.3109,241.771 93.4754,240.002 93.4754,237.863 C93.5577,234.694 93.7635,233.336 94.7101,230.785 C95.4096,228.851 95.9446,227.906 96.0269,228.358 C96.1915,229.058 96.315,229.016 97.0968,227.988 C98.2903,226.507 98.8253,226.836 99.6483,229.633 C99.9775,230.868 100.471,232.019 100.718,232.143 C100.965,232.308 101.747,233.748 102.488,235.394 C103.763,238.15 104.545,239.22 104.998,238.809 C105.081,238.727 105.286,237.368 105.451,235.887 C105.656,234.365 105.986,233.09 106.191,233.09 C106.438,233.048 107.097,234.365 107.673,235.969 C108.702,238.685 109.936,240.743 111.541,242.306 C111.871,242.677 112.364,243.459 112.653,244.117 C113.146,245.228 113.146,245.186 113.393,242.842 C113.722,239.179 114.422,239.549 114.957,243.664 C115.451,247.285 116.232,249.178 117.303,249.178 C117.631,249.178 118.084,249.877 118.331,250.905 C124.093,273.371 134.381,292.667 150.718,311.635 L152.446,313.61 L143.228,322.827 L134.011,332.043 L133.105,331.221 C131.459,329.739 124.545,321.51 121.006,316.82 C101.047,290.281 89.5249,259.669 86.6442,225.519 C86.4385,222.804 86.2328,220.253 86.2328,219.841 C86.2328,219.224 86.6442,219.142 89.1134,219.142 C90.7183,219.142 91.994,219.265 91.994,219.471 M178.167,220.458 C178.29,221.198 178.495,223.092 178.619,224.696 C179.771,238.15 186.726,254.815 195.739,265.636 C196.849,266.952 197.754,268.227 197.754,268.392 C197.754,268.927 181.129,285.385 180.594,285.385 C180.059,285.385 176.356,280.077 176.356,279.295 C176.356,279.048 175.78,277.362 175.08,275.552 C174.051,273.001 173.434,272.013 172.405,271.313 C171.623,270.778 171.006,270.203 171.006,270.038 C171.006,269.833 171.5,270.079 172.117,270.532 C172.694,271.025 173.269,271.313 173.352,271.231 C173.639,270.985 171.829,267.61 170.841,266.5 L169.977,265.512 L170.883,266.006 C172.199,266.705 172.405,266.582 173.022,264.894 C174.01,262.303 173.804,259.999 172.24,255.966 L170.8,252.264 L170.965,246.503 C171.253,237.368 171.17,234.818 170.635,230.58 C170.183,227 170.183,226.342 170.8,224.491 C171.377,222.762 171.417,222.187 171.006,221.158 C170.718,220.499 170.224,219.799 169.895,219.594 C169.524,219.429 171.088,219.224 173.639,219.182 L177.96,219.101 L178.167,220.458 M199.483,219.553 L208.002,219.553 L208.989,220.993 C209.977,222.433 209.977,222.433 210.718,221.61 C211.17,221.075 211.747,220.87 212.24,221.035 C212.817,221.198 212.981,221.035 212.981,220.376 C212.981,219.882 213.187,219.636 213.392,219.759 C213.639,219.882 213.804,220.541 213.804,221.198 C213.804,225.395 217.837,235.723 221.376,240.701 L223.228,243.294 L212.857,253.621 C207.137,259.34 202.281,263.99 202.076,263.99 C201.829,263.99 200.8,262.92 199.771,261.603 C192.693,252.757 187.755,242.265 185.244,230.868 C184.462,227.124 183.68,220.006 184.01,219.471 C184.216,219.182 185.451,219.101 187.631,219.306 C189.483,219.429 194.792,219.553 199.483,219.553 M359.071,221.898 C359.03,228.441 356.889,239.632 353.885,248.766 C351.129,257.201 345.491,268.927 344.256,268.927 C343.639,268.927 343.021,269.791 341.786,272.384 C338.824,278.555 335.326,283.081 334.214,282.093 C333.886,281.846 332.857,282.176 331.046,283.163 C326.108,285.838 326.849,285.879 323.844,282.875 L321.17,280.242 L322.939,279.707 C324.298,279.295 325.079,279.295 326.396,279.665 C328.454,280.201 329.4,279.83 330.593,277.896 C331.663,276.127 333.927,270.532 334.626,267.899 C334.914,266.746 335.367,265.059 335.655,264.113 C336.273,261.768 335.778,256.214 334.914,255.884 C334.544,255.719 333.762,256.214 332.898,257.159 C332.157,257.983 331.252,258.641 330.923,258.641 C330.511,258.641 330.223,259.217 330.058,260.164 C329.4,264.113 328.33,265.636 326.232,265.636 C325.696,265.636 324.915,265.8 324.503,266.046 C323.598,266.54 322.363,266.17 322.569,265.471 C322.651,265.224 323.886,264.36 325.326,263.578 C327.425,262.426 328.124,261.768 328.865,260.287 C329.4,259.258 330.223,258.065 330.799,257.613 C332.198,256.419 333.269,254.362 334.586,250.37 C335.408,247.902 336.19,246.42 337.301,245.186 C338.207,244.199 338.906,243.252 338.906,243.005 C338.906,242.759 339.071,242.635 339.277,242.8 C340.017,243.212 340.964,241.73 340.964,240.084 L340.964,238.48 L342.898,238.48 C346.396,238.48 352.856,233.83 352.239,231.732 C351.622,229.675 350.594,228.441 349.277,228.152 C347.63,227.823 347.054,227.082 345.779,223.667 C345.244,222.187 344.667,220.664 344.462,220.253 C344.174,219.594 344.667,219.553 351.622,219.553 L359.071,219.553 L359.071,221.898 M391.581,222.392 C391.581,228.769 390.017,239.796 387.877,248.561 C385.408,258.558 381.993,267.857 377.178,277.362 C374.174,283.369 368.618,292.791 368.083,292.791 C367.919,292.791 367.507,291.639 367.095,290.199 C366.725,288.8 366.067,287.072 365.737,286.414 C365.367,285.714 365.038,284.727 365.038,284.15 C365.038,283.287 364.832,283.081 363.679,282.998 C361.499,282.793 360.882,283.657 360.593,287.36 C360.388,289.829 360.017,291.145 358.865,293.409 C357.136,296.824 357.096,297.605 358.453,298.222 C359.276,298.593 359.482,298.963 359.482,300.238 C359.482,301.102 359.77,302.049 360.058,302.378 C360.593,302.913 360.182,303.53 356.725,307.398 L352.774,311.8 L350.717,309.743 L348.66,307.686 L349.318,306.246 C350.429,303.983 350.223,302.913 348.495,301.596 C347.219,300.65 346.519,300.444 344.338,300.362 C342.651,300.32 341.54,300.074 341.334,299.703 C340.758,298.839 341.334,295.877 343.433,289.294 C344.544,285.879 345.614,282.053 345.861,280.694 C346.191,278.966 347.013,277.156 348.742,274.317 C350.059,272.137 351.911,268.968 352.816,267.282 C359.358,255.225 364.133,238.52 365.038,224.491 C365.203,222.35 365.367,220.335 365.45,220.046 C365.573,219.676 368.577,219.553 378.618,219.553 L391.581,219.553 L391.581,222.392 M425.614,226.218 C424.625,250.33 418.741,273.001 407.795,294.808 C400.51,309.29 392.898,320.276 381.334,333.031 L377.877,336.898 L367.465,326.489 L357.096,316.12 L361.21,311.553 C377.836,293.079 389.194,270.985 394.626,246.709 C396.067,240.249 397.259,231.444 397.589,225.519 C397.712,222.804 397.877,220.335 398.001,220.046 C398.124,219.676 401.252,219.553 411.992,219.553 L425.861,219.553 L425.614,226.218 M236.644,253.991 C240.677,256.049 245.45,257.571 249.936,258.23 L253.31,258.723 L253.31,261.562 C253.31,263.784 253.187,264.401 252.692,264.401 C252.364,264.401 251.787,264.854 251.458,265.389 C250.841,266.293 250.882,266.5 251.705,268.063 C252.158,268.968 252.734,269.75 252.939,269.75 C253.721,269.75 253.269,271.395 252.199,272.465 L251.088,273.618 L252.24,273.988 L253.434,274.399 L252.034,275.017 L250.635,275.675 L251.993,275.84 C253.063,275.963 253.31,276.169 253.31,276.951 C253.31,277.444 253.022,278.02 252.652,278.143 C251.993,278.39 251.993,278.473 252.652,279.131 C253.104,279.665 253.31,280.654 253.31,282.216 C253.31,284.439 253.269,284.562 252.405,284.357 C249.812,283.698 246.849,283.451 246.232,283.78 C245.862,283.987 245.408,284.809 245.245,285.632 C245.08,286.455 244.709,287.195 244.38,287.318 C242.651,287.977 230.306,284.192 223.969,281.024 C219.072,278.596 211.829,273.741 208.454,270.614 L205.78,268.145 L216.232,257.694 L226.684,247.202 L230.018,249.753 C231.869,251.152 234.833,253.045 236.644,253.991 M280.677,255.062 C280.347,255.596 279.606,256.254 279.03,256.501 C277.796,257.077 277.713,258.23 278.824,259.258 C279.895,260.204 279.853,260.616 278.742,260.781 C277.878,260.904 277.796,261.109 277.796,263.332 L277.796,265.759 L275.985,266.746 C274.955,267.282 273.845,267.98 273.516,268.269 C273.145,268.598 271.746,268.927 270.388,269.009 L267.919,269.133 L267.878,267.24 C267.836,264.731 267.466,264.154 266.438,265.059 C265.491,265.923 265.449,266.911 266.314,268.557 C266.973,269.873 266.602,270.985 265.449,270.985 C265.162,270.985 263.598,272.301 261.911,273.864 C260.224,275.469 258.824,276.58 258.742,276.334 C258.66,276.127 258.824,275.222 259.112,274.399 C259.482,273.247 259.482,272.836 259.112,272.712 C258.784,272.589 258.66,270.45 258.66,265.594 C258.66,259.011 258.701,258.641 259.442,258.641 C259.894,258.641 260.511,258.517 260.841,258.393 C261.788,258.023 262.57,259.916 262.733,263.043 C262.775,263.332 263.145,263.742 263.598,263.99 C264.297,264.36 264.627,264.237 265.697,263.167 C266.396,262.508 267.013,261.933 267.096,261.933 C267.178,261.933 268.001,263.125 268.907,264.607 C269.853,266.088 270.759,267.282 270.923,267.282 C271.129,267.282 271.704,266.828 272.199,266.293 C272.981,265.471 273.145,264.771 273.268,262.015 C273.392,258.97 273.31,258.641 272.404,257.776 C271.129,256.584 271.17,255.842 272.528,255.308 C273.475,254.938 273.763,255.02 274.338,255.719 C274.709,256.172 275.491,256.666 276.067,256.789 C276.89,256.995 277.343,256.789 278.454,255.596 C279.195,254.773 280.141,254.115 280.552,254.115 C281.252,254.115 281.252,254.197 280.677,255.062 M301.91,270.655 C301.252,271.067 300.264,272.137 299.689,273.001 C298.372,275.017 296.026,276.497 294.832,276.127 C294.009,275.84 293.969,275.634 294.174,273.289 C294.462,270.203 294.75,269.421 295.779,268.886 C296.396,268.557 296.725,268.557 296.931,268.927 C297.383,269.668 299.277,269.091 299.853,268.063 C300.306,267.199 300.347,267.24 301.705,268.557 L303.104,269.914 L301.91,270.655 M208.249,277.732 C218.33,285.756 231.129,291.268 244.133,293.244 C248.001,293.819 248.124,294.396 244.586,295.301 C243.269,295.671 242.076,296.33 241.212,297.194 C240.059,298.387 239.565,298.593 237.137,298.839 C235.409,299.004 232.981,299.662 230.552,300.609 L226.766,302.131 L226.891,303.818 C227.014,305.217 226.808,305.711 225.368,307.356 C224.421,308.427 223.68,309.579 223.68,309.907 C223.68,310.278 224.792,311.677 226.191,313.035 C227.548,314.392 228.618,315.586 228.495,315.668 C228.248,315.956 220.347,313.282 215.656,311.348 C205.532,307.11 195.862,300.938 186.726,292.874 L183.68,290.199 L192.651,281.229 L201.623,272.26 L203.311,273.7 C204.216,274.481 206.438,276.292 208.249,277.732 M138.002,278.514 C141.006,281.271 145.779,284.562 146.768,284.562 C147.138,284.562 147.673,284.274 147.961,283.945 C148.867,282.875 151.459,284.809 156.397,290.323 C162.569,297.152 164.093,298.593 165.615,298.921 L166.891,299.168 L161.87,304.188 L156.809,309.208 L153.928,305.916 C149.319,300.609 143.187,292.174 139.731,286.373 C136.644,281.189 133.557,275.428 133.557,274.852 C133.557,274.523 134.421,275.222 138.002,278.514 M308.7,278.226 C308.988,280.694 308.7,281.312 306.766,282.34 C306.149,282.628 304.627,283.78 303.392,284.85 C301.005,286.948 296.89,288.8 293.104,289.541 C290.758,289.952 289.277,291.105 288.906,292.791 C288.742,293.573 288.289,294.026 287.549,294.231 C286.108,294.643 273.886,294.808 273.886,294.437 C273.886,294.273 274.174,293.614 274.503,292.956 C274.997,291.927 275.573,291.598 277.878,290.981 C282.157,289.869 289.153,286.948 293.804,284.357 C298.125,281.929 305.244,276.991 306.602,275.51 C307.343,274.688 307.425,274.688 307.918,275.305 C308.165,275.715 308.536,277.032 308.7,278.226 M271.541,283.945 C271.952,284.233 273.268,284.727 274.421,285.014 C276.519,285.509 276.561,285.549 275.327,285.879 C272.199,286.784 265.984,287.895 262.98,288.1 C259.812,288.307 259.729,288.307 260.841,287.648 C261.458,287.278 262.158,286.538 262.363,285.961 C262.693,285.138 263.022,284.974 264.504,284.974 C265.491,284.932 266.931,284.604 267.713,284.15 C269.442,283.205 270.512,283.163 271.541,283.945 M181.294,299.58 C183.434,300.609 185.614,301.432 186.15,301.432 C186.685,301.432 188.166,302.254 189.442,303.242 C200.924,312.047 217.632,319.865 231.706,322.991 C237.302,324.267 243.557,325.172 249.113,325.542 L253.31,325.83 L253.31,338.997 L253.31,352.163 L248.454,351.916 C217.878,350.271 188.208,337.886 164.915,317.025 L160.635,313.24 L168.372,305.505 C172.652,301.226 176.438,297.729 176.767,297.729 C177.097,297.729 179.154,298.551 181.294,299.58 M169.071,328.505 C191.953,346.157 219.483,356.443 248.289,358.047 L253.31,358.335 L253.31,372.201 L253.31,386.067 L250.965,385.903 C231.581,384.709 215.491,381.376 198.66,375.04 C178.125,367.346 156.397,353.892 141.747,339.779 L137.879,336.035 L147.096,326.777 L156.314,317.56 L160.595,321.387 C162.94,323.526 166.726,326.694 169.071,328.505 M363.803,330.234 C372.774,339.203 374.009,340.602 373.474,341.095 C365.985,348.255 352.733,358.006 342.198,364.096 C323.474,374.834 300.964,382.24 278.618,384.956 C274.38,385.45 264.05,386.19 260.841,386.19 L258.66,386.19 L258.66,372.283 L258.66,358.335 L263.722,358.047 C275.697,357.388 289.853,354.674 300.471,351.052 L303.433,350.065 L306.231,350.847 C308.001,351.341 309.318,351.958 309.729,352.534 C311.046,354.22 313.845,353.275 324.585,347.349 C333.886,342.247 336.931,339.449 340.758,332.373 C342.363,329.369 343.31,328.176 345.079,326.777 C346.314,325.789 348.66,323.856 350.223,322.457 C351.828,321.058 353.186,319.947 353.31,319.947 C353.433,319.947 358.166,324.555 363.803,330.234 M278.371,324.637 C278.783,325.09 278.742,325.502 278.248,326.489 C276.972,328.917 277.384,329.41 281.499,330.234 C284.915,330.933 287.014,332.003 289.029,334.059 L290.758,335.829 L289.112,337.804 C285.655,341.96 286.314,343.234 292.816,345.128 L295.903,345.992 L293.434,346.774 C285.12,349.407 268.825,352.04 260.841,352.04 L258.66,352.04 L258.66,338.914 L258.66,325.83 L263.104,325.502 C265.532,325.337 269.195,324.967 271.211,324.678 C276.396,323.979 277.836,323.979 278.371,324.637 Z" style="stroke:none;fill-rule:evenodd;fill:#02475d;fill-opacity:1;"/>
        </g>
        <g id="Shape2">
            <desc shapeID="2" type="0" basicInfo-basicType="0" basicInfo-roundedRectRadius="12" basicInfo-polygonSides="6" basicInfo-starPoints="5" bounding="rect(-14.8228,-17.3977,29.6458,34.7953)" text="" font-familyName="" font-pixelSize="20" font-bold="0" font-underline="0" font-alignment="1" strokeStyle="0" markerStart="0" markerEnd="0" shadowEnabled="0" shadowOffsetX="0" shadowOffsetY="2" shadowBlur="4" shadowOpacity="160" blurEnabled="0" blurRadius="4" transform="matrix(0.41152,0,0,0.41145,344.183,173.691)" pers-center="0,0" pers-size="0,0" pers-start="0,0" pers-end="0,0" locked="0" mesh="" flag=""/>
            <path id="shapePath2" d="M340.552,167.299 C340.552,168.245 340.552,168.245 339.153,167.71 C338.207,167.381 338.083,167.423 338.083,168.163 C338.083,169.603 339.235,171.578 340.716,172.565 C342.116,173.512 346.684,178.244 348.042,180.095 C348.742,181.042 348.783,181.082 349.4,180.3 C350.676,178.654 350.594,177.05 348.988,173.429 C346.848,168.492 346.684,168.327 343.68,167.34 C340.429,166.271 340.552,166.271 340.552,167.299 Z" style="stroke:none;fill-rule:evenodd;fill:#02475d;fill-opacity:1;"/>
        </g>
        <g id="Shape3">
            <desc shapeID="3" type="0" basicInfo-basicType="0" basicInfo-roundedRectRadius="12" basicInfo-polygonSides="6" basicInfo-starPoints="5" bounding="rect(-12.9884,-9.19046,25.9767,18.3809)" text="" font-familyName="" font-pixelSize="20" font-bold="0" font-underline="0" font-alignment="1" strokeStyle="0" markerStart="0" markerEnd="0" shadowEnabled="0" shadowOffsetX="0" shadowOffsetY="2" shadowBlur="4" shadowOpacity="160" blurEnabled="0" blurRadius="4" transform="matrix(0.41152,0,0,0.41145,230.26,214.735)" pers-center="0,0" pers-size="0,0" pers-start="0,0" pers-end="0,0" locked="0" mesh="" flag=""/>
            <path id="shapePath3" d="M229.894,211.571 C230.142,211.9 230.717,212.146 231.129,212.146 C232.116,212.146 232.116,213.052 231.171,213.917 C230.182,214.821 229.647,214.78 228.701,213.793 L227.92,212.928 L227.22,213.998 C226.808,214.616 226.149,215.439 225.697,215.891 C225.286,216.303 224.915,216.92 224.915,217.208 C224.915,217.866 226.438,217.99 227.425,217.455 C228.001,217.167 228.125,217.208 227.96,217.66 C227.548,218.73 228.66,218.812 229.771,217.825 C230.389,217.29 231.869,216.096 233.063,215.233 C235.12,213.67 235.985,212.27 235.45,211.366 C235.285,211.119 233.886,210.954 232.281,210.954 C229.812,210.954 229.442,211.077 229.894,211.571 Z" style="stroke:none;fill-rule:evenodd;fill:#02475d;fill-opacity:1;"/>
        </g>
        <g id="Shape4">
            <desc shapeID="4" type="0" basicInfo-basicType="0" basicInfo-roundedRectRadius="12" basicInfo-polygonSides="6" basicInfo-starPoints="5" bounding="rect(-19.706,-16.2857,39.412,32.5714)" text="" font-familyName="" font-pixelSize="20" font-bold="0" font-underline="0" font-alignment="1" strokeStyle="0" markerStart="0" markerEnd="0" shadowEnabled="0" shadowOffsetX="0" shadowOffsetY="2" shadowBlur="4" shadowOpacity="160" blurEnabled="0" blurRadius="4" transform="matrix(0.41152,0,0,0.41145,232.287,222.191)" pers-center="0,0" pers-size="0,0" pers-start="0,0" pers-end="0,0" locked="0" mesh="" flag=""/>
            <path id="shapePath4" d="M236.561,215.726 C236.273,215.809 236.026,216.179 236.026,216.468 C236.026,216.755 235.45,217.455 234.75,217.99 C234.051,218.524 232.981,219.429 232.405,220.046 C231.746,220.746 230.882,221.198 230.265,221.198 C227.96,221.198 225.079,224.203 224.297,227.453 C223.969,228.769 224.215,228.851 226.356,227.988 C227.878,227.329 228.619,227.412 230.964,228.481 C232.446,229.181 233.433,228.975 233.845,227.946 C233.968,227.617 235.327,226.054 236.849,224.491 C239.895,221.322 240.882,219.224 240.182,217.372 C239.935,216.755 239.483,216.261 239.113,216.261 C238.783,216.261 238.495,216.056 238.495,215.85 C238.495,215.439 237.426,215.356 236.561,215.726 Z" style="stroke:none;fill-rule:evenodd;fill:#02475d;fill-opacity:1;"/>
        </g>
        <g id="Shape5">
            <desc shapeID="5" type="0" basicInfo-basicType="0" basicInfo-roundedRectRadius="12" basicInfo-polygonSides="6" basicInfo-starPoints="5" bounding="rect(-74.5669,-78.4623,149.135,156.925)" text="" font-familyName="" font-pixelSize="20" font-bold="0" font-underline="0" font-alignment="1" strokeStyle="0" markerStart="0" markerEnd="0" shadowEnabled="0" shadowOffsetX="0" shadowOffsetY="2" shadowBlur="4" shadowOpacity="160" blurEnabled="0" blurRadius="4" transform="matrix(0.41152,0,0,0.41145,413.831,86.8036)" pers-center="0,0" pers-size="0,0" pers-start="0,0" pers-end="0,0" locked="0" mesh="" flag=""/>
            <path id="shapePath5" d="M384.791,56.2484 C385.696,57.2359 388.865,60.5275 391.869,63.6134 C395.532,67.3576 398.412,70.8138 400.675,74.1053 C409.153,86.5723 419.687,98.5043 430.881,108.338 C436.684,113.44 444.173,119.365 444.503,119.077 C444.585,118.953 444.296,118.007 443.844,116.979 C443.35,115.909 442.362,112.741 441.58,109.943 C437.671,95.6242 431.869,84.7207 423.597,76.1626 C416.519,68.7976 410.141,64.9711 395.49,59.2931 C390.964,57.5239 386.354,55.7547 385.202,55.302 L383.145,54.5203 L384.791,56.2484 Z" style="stroke:none;fill-rule:evenodd;fill:#de6400;fill-opacity:1;"/>
        </g>
        <g id="Shape6">
            <desc shapeID="6" type="0" basicInfo-basicType="0" basicInfo-roundedRectRadius="12" basicInfo-polygonSides="6" basicInfo-starPoints="5" bounding="rect(-72.7162,-79.4173,145.433,158.834)" text="" font-familyName="" font-pixelSize="20" font-bold="0" font-underline="0" font-alignment="1" strokeStyle="0" markerStart="0" markerEnd="0" shadowEnabled="0" shadowOffsetX="0" shadowOffsetY="2" shadowBlur="4" shadowOpacity="160" blurEnabled="0" blurRadius="4" transform="matrix(0.41152,0,0,0.41145,94.3463,89.7471)" pers-center="0,0" pers-size="0,0" pers-start="0,0" pers-end="0,0" locked="0" mesh="" flag=""/>
            <path id="shapePath6" d="M116.027,60.2807 C99.7717,66.8227 92.0763,71.3898 84.7924,78.7136 C81.171,82.3755 75.6977,90.2342 73.4344,95.0893 C72.5291,96.982 70.6361,102.66 69.1546,107.762 C67.7143,112.823 66.0682,118.172 65.4921,119.57 C64.9159,121.011 64.4221,122.286 64.4221,122.41 C64.4221,122.533 65.2864,121.793 66.3974,120.764 C67.4673,119.694 71.7472,116.032 75.9447,112.534 C87.673,102.784 91.5002,98.7512 98.9898,88.1358 C108.002,75.2986 113.228,68.7154 119.319,62.4614 C122.241,59.4989 124.463,57.0302 124.257,57.0714 C124.051,57.0714 120.348,58.5525 116.027,60.2807 Z" style="stroke:none;fill-rule:evenodd;fill:#de6400;fill-opacity:1;"/>
        </g>
        <g id="Shape7">
            <desc shapeID="7" type="0" basicInfo-basicType="0" basicInfo-roundedRectRadius="12" basicInfo-polygonSides="6" basicInfo-starPoints="5" bounding="rect(-72.89,-112.5,145.78,225)" text="" font-familyName="" font-pixelSize="20" font-bold="0" font-underline="0" font-alignment="1" strokeStyle="0" markerStart="0" markerEnd="0" shadowEnabled="0" shadowOffsetX="0" shadowOffsetY="2" shadowBlur="4" shadowOpacity="160" blurEnabled="0" blurRadius="4" transform="matrix(0.41152,0,0,0.41145,437.886,123.891)" pers-center="0,0" pers-size="0,0" pers-start="0,0" pers-end="0,0" locked="0" mesh="" flag=""/>
            <path id="shapePath7" d="M432.527,78.8782 C438.823,83.8979 443.638,91.0983 446.066,98.9982 C446.642,100.932 448.535,108.05 450.223,114.839 C454.091,130.021 455.983,136.522 458.577,142.982 C459.687,145.698 460.469,148.043 460.387,148.167 C460.264,148.29 458.987,146.151 457.588,143.435 C454.749,137.921 453.679,136.481 448,130.556 C443.844,126.236 439.07,122.492 428.206,115.004 C419.482,108.996 412.609,102.331 409.564,96.9409 C407.383,93.0321 407.383,93.1555 409.276,100.932 C409.934,103.442 411.21,107.432 412.157,109.778 C416.313,120.187 421.786,126.895 433.885,136.564 C436.56,138.662 441.457,142.612 444.873,145.286 C455.326,153.639 461.951,160.551 466.272,167.587 C467.136,169.027 467.876,170.179 467.876,170.179 C467.918,170.179 467.711,168.575 467.383,166.558 C466.971,163.72 466.889,160.304 467.177,150.224 C467.836,124.426 467.506,118.871 464.79,110.765 C461.374,100.603 453.802,90.3165 445.038,84.0625 C441.95,81.8818 436.477,79.2074 433.144,78.2199 L430.881,77.6027 L432.527,78.8782 Z" style="stroke:none;fill-rule:evenodd;fill:#de6400;fill-opacity:1;"/>
        </g>
        <g id="Shape8">
            <desc shapeID="8" type="0" basicInfo-basicType="0" basicInfo-roundedRectRadius="12" basicInfo-polygonSides="6" basicInfo-starPoints="5" bounding="rect(-71.5204,-111.129,143.04,222.258)" text="" font-familyName="" font-pixelSize="20" font-bold="0" font-underline="0" font-alignment="1" strokeStyle="0" markerStart="0" markerEnd="0" shadowEnabled="0" shadowOffsetX="0" shadowOffsetY="2" shadowBlur="4" shadowOpacity="160" blurEnabled="0" blurRadius="4" transform="matrix(0.41152,0,0,0.41145,71.6156,126.716)" pers-center="0,0" pers-size="0,0" pers-start="0,0" pers-end="0,0" locked="0" mesh="" flag=""/>
            <path id="shapePath8" d="M74.5044,81.676 C64.9571,85.0911 56.4386,92.1681 49.9366,101.96 C43.1054,112.247 40.9243,126.977 42.8585,149.853 C43.3935,156.19 43.4347,159.111 43.1054,164.665 C42.6528,173.018 42.8173,173.841 44.3811,170.878 C47.5909,164.748 57.632,153.803 65.0394,148.372 C71.8706,143.393 77.632,138.374 82.7759,133.025 C93.9693,121.381 99.4837,110.601 100.801,97.7637 L101.047,95.5008 L99.3191,98.7924 C98.3314,100.603 96.8499,103.03 96.0269,104.182 C93.4754,107.639 86.7677,113.769 80.9241,117.925 C69.1958,126.318 66.9735,128.087 62.9818,132.12 C57.9613,137.181 54.6279,141.789 51.7885,147.508 C48.5375,154.051 48.9901,151.335 53.023,140.143 C55.6567,132.778 57.0971,127.347 59.525,115.867 C60.6773,110.313 62.2822,103.854 63.0641,101.467 C65.739,93.3612 69.8954,86.8603 75.0394,82.6636 C77.4674,80.6886 77.4262,80.6063 74.5044,81.676 Z" style="stroke:none;fill-rule:evenodd;fill:#de6400;fill-opacity:1;"/>
        </g>
        <g id="Shape9">
            <desc shapeID="9" type="0" basicInfo-basicType="0" basicInfo-roundedRectRadius="12" basicInfo-polygonSides="6" basicInfo-starPoints="5" bounding="rect(-74.8298,-146.182,149.66,292.364)" text="" font-familyName="" font-pixelSize="20" font-bold="0" font-underline="0" font-alignment="1" strokeStyle="0" markerStart="0" markerEnd="0" shadowEnabled="0" shadowOffsetX="0" shadowOffsetY="2" shadowBlur="4" shadowOpacity="160" blurEnabled="0" blurRadius="4" transform="matrix(0.41152,0,0,0.41145,460.646,169.984)" pers-center="0,0" pers-size="0,0" pers-start="0,0" pers-end="0,0" locked="0" mesh="" flag=""/>
            <path id="shapePath9" d="M469.4,109.901 C469.482,110.107 470.345,111.917 471.334,113.851 C473.391,118.048 474.872,123.479 475.49,129.363 C476.148,135.329 476.066,139.32 475.16,147.343 C473.268,164.048 473.061,181.494 474.543,195.813 C475.12,201.572 475.12,203.259 474.543,202.642 C474.42,202.56 473.843,199.763 473.268,196.512 C472.074,190.176 470.387,185.197 467.671,180.095 C464.502,174.17 460.428,169.726 448.988,159.481 C438.906,150.471 434.873,146.356 431.869,141.871 C430.757,140.184 429.852,139.073 429.852,139.403 C429.852,140.472 432.28,149.483 433.68,153.516 C438.001,166.188 441.21,171.783 453.391,187.953 C468.041,207.374 472.403,215.274 474.913,226.877 C475.325,228.728 475.695,230.21 475.778,230.127 C475.86,230.045 476.312,227.988 476.765,225.478 C478.618,215.973 481.375,206.592 484.955,197.87 C488.782,188.53 490.428,181.864 491.168,172.442 C492.403,157.629 489.399,141.913 482.856,128.828 C480.47,124.055 473.021,113.029 470.799,110.93 C469.934,110.148 469.317,109.655 469.4,109.901 Z" style="stroke:none;fill-rule:evenodd;fill:#de6400;fill-opacity:1;"/>
        </g>
        <g id="Shape10">
            <desc shapeID="10" type="0" basicInfo-basicType="0" basicInfo-roundedRectRadius="12" basicInfo-polygonSides="6" basicInfo-starPoints="5" bounding="rect(-73.0711,-146.249,146.143,292.498)" text="" font-familyName="" font-pixelSize="20" font-bold="0" font-underline="0" font-alignment="1" strokeStyle="0" markerStart="0" markerEnd="0" shadowEnabled="0" shadowOffsetX="0" shadowOffsetY="2" shadowBlur="4" shadowOpacity="160" blurEnabled="0" blurRadius="4" transform="matrix(0.41152,0,0,0.41145,49.4309,173.162)" pers-center="0,0" pers-size="0,0" pers-start="0,0" pers-end="0,0" locked="0" mesh="" flag=""/>
            <path id="shapePath10" d="M36.7268,116.567 C28.373,127.8 22.8997,139.402 20.3071,151.252 C19.4841,155.161 19.4018,156.684 19.3607,167.093 C19.3607,178.284 19.4018,178.737 20.5129,183.386 C21.8298,189.023 23.5993,194.29 28.373,206.798 C32.8174,218.607 34.2989,223.626 35.4511,231.279 L35.7391,233.336 L36.2741,230.868 C37.8379,223.379 42.0766,213.793 47.6733,205.07 C49.3604,202.437 53.6403,196.223 57.1382,191.286 C64.0106,181.617 68.455,174.787 70.7595,170.302 C73.8459,164.295 77.1381,154.503 78.5784,147.138 C78.9488,145.204 79.3603,143.188 79.4837,142.612 C79.6072,141.994 79.0722,142.612 78.208,144.052 C75.4508,148.577 73.599,150.676 66.3974,157.342 C45.9037,176.268 40.3071,184.621 37.6733,200.215 C36.8503,205.111 36.3976,206.51 35.9038,205.687 C35.7803,205.482 36.0272,200.585 36.4799,194.866 C37.591,180.918 37.3853,172.154 35.6569,158.946 C32.5704,135.617 33.3523,125.002 38.949,115.127 C39.6074,113.975 39.9778,112.988 39.7721,112.988 C39.5663,112.988 38.2083,114.592 36.7268,116.567 Z" style="stroke:none;fill-rule:evenodd;fill:#de6400;fill-opacity:1;"/>
        </g>
        <g id="Shape11">
            <desc shapeID="11" type="0" basicInfo-basicType="0" basicInfo-roundedRectRadius="12" basicInfo-polygonSides="6" basicInfo-starPoints="5" bounding="rect(-70.2501,-146.188,140.501,292.374)" text="" font-familyName="" font-pixelSize="20" font-bold="0" font-underline="0" font-alignment="1" strokeStyle="0" markerStart="0" markerEnd="0" shadowEnabled="0" shadowOffsetX="0" shadowOffsetY="2" shadowBlur="4" shadowOpacity="160" blurEnabled="0" blurRadius="4" transform="matrix(0.41152,0,0,0.41145,474.401,234.166)" pers-center="0,0" pers-size="0,0" pers-start="0,0" pers-end="0,0" locked="0" mesh="" flag=""/>
            <path id="shapePath11" d="M496.806,175.528 C497.383,178.737 497.136,189.435 496.395,193.467 C494.79,202.025 492.403,208.938 485.736,224.079 C479.77,237.533 478.988,240.126 474.502,259.875 C472.527,268.639 471.539,271.642 470.84,270.943 C470.757,270.861 471.251,268.474 471.951,265.636 C473.103,260.904 473.185,259.916 473.226,252.881 C473.268,247.038 473.103,244.487 472.527,241.853 C470.963,234.489 467.918,227.699 461.663,217.372 C451.004,199.845 449.441,196.882 447.218,190.217 C446.518,188.2 445.86,186.472 445.695,186.308 C445.12,185.772 445.86,199.639 446.725,205.358 C448.906,220.006 452.445,234.612 457.918,251.852 C463.308,268.762 463.226,268.434 463.473,277.156 C463.597,281.353 463.473,286.908 463.268,289.499 C463.021,292.092 462.856,294.273 462.938,294.313 C462.98,294.354 464.543,292.257 466.354,289.582 C468.206,286.948 473.185,280.324 477.424,274.893 C492.073,256.172 492.485,255.555 495.901,247.202 C499.07,239.467 501.086,231.773 502.773,221.405 C503.596,216.303 503.432,199.021 502.568,193.837 C501.539,188.036 499.975,182.07 498.329,177.832 C496.641,173.471 496.354,173.059 496.806,175.528 Z" style="stroke:none;fill-rule:evenodd;fill:#de6400;fill-opacity:1;"/>
        </g>
        <g id="Shape12">
            <desc shapeID="12" type="0" basicInfo-basicType="0" basicInfo-roundedRectRadius="12" basicInfo-polygonSides="6" basicInfo-starPoints="5" bounding="rect(-69.6976,-145.13,139.395,290.259)" text="" font-familyName="" font-pixelSize="20" font-bold="0" font-underline="0" font-alignment="1" strokeStyle="0" markerStart="0" markerEnd="0" shadowEnabled="0" shadowOffsetX="0" shadowOffsetY="2" shadowBlur="4" shadowOpacity="160" blurEnabled="0" blurRadius="4" transform="matrix(0.41152,0,0,0.41145,36.5451,237.416)" pers-center="0,0" pers-size="0,0" pers-start="0,0" pers-end="0,0" locked="0" mesh="" flag=""/>
            <path id="shapePath12" d="M12.6118,181.37 C11.2538,185.526 9.27845,193.92 8.41426,199.186 C7.59122,204 7.71468,217.743 8.62003,223.873 C10.225,235.065 13.229,246.38 16.2743,252.757 C19.5664,259.71 22.694,264.154 33.1467,276.744 C39.731,284.686 44.2988,290.775 46.3152,294.313 C48.1671,297.564 48.949,298.016 48.6198,295.589 C48.4963,294.601 48.2906,290.199 48.1259,285.796 C47.7968,275.592 48.0025,274.317 53.1465,256.789 C60.3893,231.896 62.8584,220.541 64.6279,203.918 C65.2864,197.746 65.4509,189.682 64.8748,189.352 C64.7102,189.229 64.2164,190.381 63.8049,191.903 C62.2411,197.87 59.9366,202.807 55.3687,210.09 C49.9366,218.689 43.5992,231.239 41.624,237.41 C37.7557,249.26 37.2619,261.233 40.2248,270.902 C41.1712,273.988 41.089,275.552 40.0602,273.659 C39.1548,271.972 37.5498,265.883 36.0272,258.435 C33.3524,245.433 31.4594,239.796 24.9162,225.313 C19.9369,214.287 17.8793,209.143 16.3155,204.123 C13.8875,196.059 12.941,187.995 13.764,181.535 C14.0109,179.519 14.1344,177.791 14.0521,177.709 C13.9698,177.585 13.3114,179.272 12.6118,181.37 Z" style="stroke:none;fill-rule:evenodd;fill:#de6400;fill-opacity:1;"/>
        </g>
        <g id="Shape13">
            <desc shapeID="13" type="0" basicInfo-basicType="0" basicInfo-roundedRectRadius="12" basicInfo-polygonSides="6" basicInfo-starPoints="5" bounding="rect(-94.6286,-133.461,189.258,266.922)" text="" font-familyName="" font-pixelSize="20" font-bold="0" font-underline="0" font-alignment="1" strokeStyle="0" markerStart="0" markerEnd="0" shadowEnabled="0" shadowOffsetX="0" shadowOffsetY="2" shadowBlur="4" shadowOpacity="160" blurEnabled="0" blurRadius="4" transform="matrix(0.41152,0,0,0.41145,465.325,297.507)" pers-center="0,0" pers-size="0,0" pers-start="0,0" pers-end="0,0" locked="0" mesh="" flag=""/>
            <path id="shapePath13" d="M447.054,248.848 C442.486,261.316 441.087,269.379 439.111,295.054 C437.959,309.661 437.177,317.19 436.189,323.033 C434.626,332.413 431.786,341.342 428.247,348.173 C427.136,350.394 426.272,352.286 426.396,352.41 C426.478,352.493 427.341,351.999 428.33,351.299 C434.008,347.102 441.21,342.247 450.634,336.158 C467.588,325.255 475.243,319.124 482.979,310.154 C495.943,295.095 503.185,278.267 504.172,260.904 C504.46,256.049 504.049,247.532 503.515,247.532 C503.35,247.532 503.103,248.478 502.938,249.63 C502.198,255.185 498.617,263.537 494.214,270.038 C489.975,276.251 487.135,279.584 477.342,289.499 C467.753,299.292 464.132,303.571 457.877,312.54 C448.988,325.295 445.655,329.822 445.161,329.822 C444.79,329.822 444.996,329.245 445.695,328.053 C447.794,324.678 450.758,318.466 452.033,314.886 C454.461,308.015 455.119,303.736 455.119,295.26 C455.119,287.072 455.037,286.084 452.28,271.395 C449.811,258.312 449.481,255.719 449.441,248.684 C449.441,245.31 449.399,242.594 449.399,242.594 C449.358,242.594 448.329,245.433 447.054,248.848 Z" style="stroke:none;fill-rule:evenodd;fill:#de6400;fill-opacity:1;"/>
        </g>
        <g id="Shape14">
            <desc shapeID="14" type="0" basicInfo-basicType="0" basicInfo-roundedRectRadius="12" basicInfo-polygonSides="6" basicInfo-starPoints="5" bounding="rect(-94.7829,-132.301,189.565,264.602)" text="" font-familyName="" font-pixelSize="20" font-bold="0" font-underline="0" font-alignment="1" strokeStyle="0" markerStart="0" markerEnd="0" shadowEnabled="0" shadowOffsetX="0" shadowOffsetY="2" shadowBlur="4" shadowOpacity="160" blurEnabled="0" blurRadius="4" transform="matrix(0.41152,0,0,0.41145,46.7379,300.321)" pers-center="0,0" pers-size="0,0" pers-start="0,0" pers-end="0,0" locked="0" mesh="" flag=""/>
            <path id="shapePath14" d="M62.2822,250.37 C62.5292,256.296 61.9531,260.739 59.2781,274.07 C55.6156,292.257 55.3687,301.02 58.2082,312.294 C59.525,317.478 62.4469,324.678 64.3399,327.435 C65.8625,329.657 67.0147,331.879 66.7678,332.126 C66.3152,332.578 62.3234,327.435 57.056,319.576 C50.1835,309.414 48.1671,307.028 35.1219,293.532 C20.3072,278.266 16.8504,273.988 12.7764,265.841 C10.6365,261.521 8.49656,254.938 8.41425,252.264 C8.3731,251.112 8.33195,251.152 7.96159,252.674 C7.46775,254.691 7.83812,268.68 8.4554,273.001 C10.0603,283.533 14.9574,295.465 21.336,304.394 C30.5129,317.232 41.4593,326.489 66.0683,342.247 C71.8295,345.95 78.5784,350.27 81.0476,351.916 C83.5579,353.562 85.6566,354.797 85.739,354.755 C85.8212,354.674 84.5455,351.834 82.9405,348.501 C78.99,340.313 78.0846,337.886 76.9736,332.29 C75.4509,324.925 74.4632,316.943 72.8584,299.786 C70.6361,276.045 69.3192,267.405 66.4386,257.406 C65.3687,253.745 62.488,245.886 62.2,245.886 C62.1176,245.886 62.2,247.902 62.2822,250.37 Z" style="stroke:none;fill-rule:evenodd;fill:#de6400;fill-opacity:1;"/>
        </g>
        <g id="Shape15">
            <desc shapeID="15" type="0" basicInfo-basicType="0" basicInfo-roundedRectRadius="12" basicInfo-polygonSides="6" basicInfo-starPoints="5" bounding="rect(-133.097,-121.302,266.193,242.606)" text="" font-familyName="" font-pixelSize="20" font-bold="0" font-underline="0" font-alignment="1" strokeStyle="0" markerStart="0" markerEnd="0" shadowEnabled="0" shadowOffsetX="0" shadowOffsetY="2" shadowBlur="4" shadowOpacity="160" blurEnabled="0" blurRadius="4" transform="matrix(0.41152,0,0,0.41145,432.895,342.863)" pers-center="0,0" pers-size="0,0" pers-start="0,0" pers-end="0,0" locked="0" mesh="" flag=""/>
            <path id="shapePath15" d="M429.811,296.823 C424.626,303.488 416.478,315.38 414.256,319.535 C411.046,325.584 408.782,331.385 403.844,345.868 C399.029,360.228 396.849,365.783 393.803,371.831 C390.264,378.99 385.161,386.067 380.346,390.593 C379.07,391.786 378.083,392.774 378.124,392.774 C378.165,392.774 380.429,392.115 383.145,391.333 C385.861,390.552 393.35,388.864 399.811,387.63 C423.597,382.981 426.272,382.24 435.819,377.591 C460.264,365.618 480.675,342.535 486.395,320.317 C488.124,313.569 488.124,313.158 486.19,316.614 C483.185,322.127 480.345,325.83 475.12,331.056 C467.136,339.079 460.304,343.399 438.906,354.097 C422.033,362.532 414.42,367.387 406.355,374.917 C403.844,377.261 400.387,379.607 399.441,379.607 C399.111,379.607 400.963,377.426 403.556,374.752 C408.7,369.526 410.84,366.893 414.297,361.503 C420.676,351.711 422.773,344.675 425.943,322.827 C428.041,308.467 429.729,301.144 432.404,294.889 C432.815,293.902 433.103,293.038 433.021,292.956 C432.938,292.874 431.498,294.601 429.811,296.823 Z" style="stroke:none;fill-rule:evenodd;fill:#de6400;fill-opacity:1;"/>
        </g>
        <g id="Shape16">
            <desc shapeID="16" type="0" basicInfo-basicType="0" basicInfo-roundedRectRadius="12" basicInfo-polygonSides="6" basicInfo-starPoints="5" bounding="rect(-133.434,-119.485,266.866,238.97)" text="" font-familyName="" font-pixelSize="20" font-bold="0" font-underline="0" font-alignment="1" strokeStyle="0" markerStart="0" markerEnd="0" shadowEnabled="0" shadowOffsetX="0" shadowOffsetY="2" shadowBlur="4" shadowOpacity="160" blurEnabled="0" blurRadius="4" transform="matrix(0.41152,0,0,0.41145,78.9628,344.846)" pers-center="0,0" pers-size="0,0" pers-start="0,0" pers-end="0,0" locked="0" mesh="" flag=""/>
            <path id="shapePath16" d="M78.4138,295.713 C78.4138,295.877 78.8665,296.988 79.4015,298.222 C81.9117,303.86 83.5167,310.771 86.0269,326.489 C88.1257,339.738 89.0722,344.223 90.8006,349.572 C94.0928,359.611 98.496,366.44 107.508,375.452 C110.966,378.907 113.763,381.829 113.681,381.911 C113.311,382.323 105.78,377.344 101.5,373.888 C93.2285,367.182 87.9611,364.013 71.8295,356.031 C63.5579,351.958 55.0806,347.596 52.9408,346.403 C40.3482,339.244 31.2536,330.562 25.6158,320.153 L24.052,317.272 L24.3401,319.124 C24.7928,322.457 27.4265,329.904 29.8544,334.964 C37.2207,350.189 49.2782,363.396 66.0683,374.547 C77.5496,382.2 85.245,384.833 106.808,388.454 C119.73,390.634 126.727,391.992 130.677,393.185 C132.2,393.638 133.639,394.008 133.846,394.008 C134.093,394.008 132.611,392.404 130.595,390.387 C121.254,381.253 116.397,372.159 108.332,348.501 C103.805,335.294 102.529,331.961 100.224,327.353 C95.6565,318.26 90.2656,310.319 79.1546,296.37 C78.743,295.877 78.4138,295.589 78.4138,295.713 Z" style="stroke:none;fill-rule:evenodd;fill:#de6400;fill-opacity:1;"/>
        </g>
        <g id="Shape17">
            <desc shapeID="17" type="0" basicInfo-basicType="0" basicInfo-roundedRectRadius="12" basicInfo-polygonSides="6" basicInfo-starPoints="5" bounding="rect(-166.056,-87.4474,332.112,174.894)" text="" font-familyName="" font-pixelSize="20" font-bold="0" font-underline="0" font-alignment="1" strokeStyle="0" markerStart="0" markerEnd="0" shadowEnabled="0" shadowOffsetX="0" shadowOffsetY="2" shadowBlur="4" shadowOpacity="160" blurEnabled="0" blurRadius="4" transform="matrix(0.41152,0,0,0.41145,382.669,381.026)" pers-center="0,0" pers-size="0,0" pers-start="0,0" pers-end="0,0" locked="0" mesh="" flag=""/>
            <path id="shapePath17" d="M394.05,348.583 C385.367,355.126 380.387,359.652 362.98,376.727 C348.988,390.428 345.737,393.061 338.289,396.724 C332.404,399.562 328.166,401.126 320.635,403.06 C317.261,403.965 314.462,404.747 314.338,404.829 C314.256,404.911 315.367,405.117 316.766,405.281 C321.129,405.776 327.342,407.051 342.898,410.713 C365.573,415.979 375.12,417.379 385.614,416.926 C394.173,416.555 400.593,415.238 408.453,412.235 C426.107,405.529 441.375,392.856 449.399,378.25 L451.005,375.287 L448.165,378.167 C439.852,386.52 429.647,391.622 415.654,394.378 C409.729,395.53 402.939,396.312 388.906,397.505 C374.791,398.698 366.972,399.686 358.413,401.414 C352.774,402.566 345.449,403.472 345.902,402.936 C346.026,402.813 349.194,401.702 353.021,400.427 C365.902,396.189 373.227,390.88 379.606,381.211 C382.116,377.385 382.98,375.781 390.47,360.186 C392.651,355.702 395.408,350.477 396.684,348.543 C397.959,346.609 398.946,345.045 398.865,345.045 C398.823,345.045 396.642,346.65 394.05,348.583 Z" style="stroke:none;fill-rule:evenodd;fill:#de6400;fill-opacity:1;"/>
        </g>
        <g id="Shape18">
            <desc shapeID="18" type="0" basicInfo-basicType="0" basicInfo-roundedRectRadius="12" basicInfo-polygonSides="6" basicInfo-starPoints="5" bounding="rect(-165.949,-85.8749,331.898,171.749)" text="" font-familyName="" font-pixelSize="20" font-bold="0" font-underline="0" font-alignment="1" strokeStyle="0" markerStart="0" markerEnd="0" shadowEnabled="0" shadowOffsetX="0" shadowOffsetY="2" shadowBlur="4" shadowOpacity="160" blurEnabled="0" blurRadius="4" transform="matrix(0.41152,0,0,0.41145,130.126,383.156)" pers-center="0,0" pers-size="0,0" pers-start="0,0" pers-end="0,0" locked="0" mesh="" flag=""/>
            <path id="shapePath18" d="M114.01,348.543 C116.644,352.534 119.319,357.348 123.064,364.795 C130.348,379.36 133.557,384.462 138.825,389.976 C144.299,395.695 151.746,399.892 159.977,401.866 C162.076,402.36 164.545,403.101 165.45,403.512 L167.097,404.254 L164.421,404.254 C162.94,404.254 160.635,404.006 159.278,403.718 C149.565,401.455 139.977,400.221 123.064,399.151 C112.9,398.493 103.517,397.588 99.1956,396.888 C83.7224,394.255 72.7349,389.194 64.0929,380.759 C61.7061,378.455 61.5004,378.332 62.1588,379.607 C64.9571,385.079 71.6649,393.268 77.7143,398.575 C94.0104,412.852 114.34,419.805 135.41,418.283 C146.315,417.502 153.558,416.144 173.269,411.083 C189.647,406.927 187.878,407.298 193.598,406.557 C196.15,406.228 198.331,405.899 198.413,405.816 C198.536,405.734 196.15,405.034 193.146,404.294 C180.183,401.084 169.813,396.354 161.747,389.893 C160.842,389.194 154.915,383.639 148.578,377.55 C132.035,361.75 124.298,355.002 116.274,349.448 C113.475,347.514 113.27,347.432 114.01,348.543 Z" style="stroke:none;fill-rule:evenodd;fill:#de6400;fill-opacity:1;"/>
        </g>
        <g id="Shape19">
            <desc shapeID="19" type="0" basicInfo-basicType="0" basicInfo-roundedRectRadius="12" basicInfo-polygonSides="6" basicInfo-starPoints="5" bounding="rect(-373.258,-68.0397,746.516,136.079)" text="" font-familyName="" font-pixelSize="20" font-bold="0" font-underline="0" font-alignment="1" strokeStyle="0" markerStart="0" markerEnd="0" shadowEnabled="0" shadowOffsetX="0" shadowOffsetY="2" shadowBlur="4" shadowOpacity="160" blurEnabled="0" blurRadius="4" transform="matrix(0.41152,0,0,0.41145,256.702,432.753)" pers-center="0,0" pers-size="0,0" pers-start="0,0" pers-end="0,0" locked="0" mesh="" flag=""/>
            <path id="shapePath19" d="M274.503,405.158 C268.907,405.693 261.993,407.175 259.936,408.244 C257.63,409.519 257.013,409.478 252.405,408.039 C245.368,405.858 240.964,405.323 230.265,405.323 C219.977,405.364 217.343,405.652 208.66,407.832 C199.113,410.26 190.676,413.387 172.981,421.081 C155.739,428.652 151.746,429.599 137.672,429.599 C129.154,429.557 127.467,429.475 123.681,428.652 C116.521,427.088 108.085,423.797 104.257,421.081 C101.87,419.395 103.27,421.204 107.55,425.319 C109.977,427.665 113.805,430.833 116.068,432.355 C122.529,436.634 132.323,441.201 139.319,443.135 C153.887,447.208 171.994,445.151 187.673,437.622 C192.734,435.153 201.376,429.763 210.471,423.262 C221.335,415.568 226.479,412.894 232.651,411.7 C235.532,411.125 242.281,411.371 244.791,412.112 L246.355,412.564 L241.294,415.156 C231.047,420.382 219.442,427.705 210.8,434.453 C202.693,440.79 190.182,452.105 190.8,452.557 C190.882,452.64 193.105,454.491 195.779,456.672 C198.413,458.852 200.717,460.704 200.924,460.745 C201.129,460.827 202.858,458.934 204.792,456.548 C208.907,451.405 217.755,442.394 223.475,437.539 C234.915,427.788 248.454,418.818 254.874,416.637 L257.507,415.773 L261.458,417.913 C263.68,419.065 268.042,421.739 271.211,423.797 C282.199,431.08 290.223,437.869 303.227,450.871 C312.363,460.046 312.61,460.251 313.515,459.634 C314.997,458.606 321.457,452.722 321.992,451.898 C322.404,451.241 322.116,450.829 319.688,448.566 C305.326,435.276 289.4,424.044 273.104,415.773 C267.508,412.934 267.26,412.729 268.372,412.4 C269.03,412.194 272.24,411.947 275.532,411.824 C280.265,411.659 282.075,411.742 284.174,412.277 C289.441,413.634 290.676,414.375 308.865,427.006 C320.717,435.194 333.022,440.502 345.532,442.806 C350.429,443.711 359.729,443.999 364.626,443.423 C376.231,442.066 389.235,436.675 399.111,429.104 C402.197,426.759 408.206,421.04 409.399,419.312 L410.305,418.078 L409.071,418.983 C407.177,420.3 400.799,423.385 397.506,424.579 C390.264,427.171 383.062,428.323 374.297,428.282 C366.93,428.282 361.869,427.623 355.696,425.854 C351.581,424.702 331.375,416.72 326.56,414.375 C311.664,407.01 291.787,403.512 274.503,405.158 Z" style="stroke:none;fill-rule:evenodd;fill:#de6400;fill-opacity:1;"/>
        </g>
        <g id="Shape20">
            <desc shapeID="20" type="0" basicInfo-basicType="0" basicInfo-roundedRectRadius="12" basicInfo-polygonSides="6" basicInfo-starPoints="5" bounding="rect(-114.143,-140.412,228.286,280.824)" text="" font-familyName="" font-pixelSize="20" font-bold="0" font-underline="0" font-alignment="1" strokeStyle="0" markerStart="0" markerEnd="0" shadowEnabled="0" shadowOffsetX="0" shadowOffsetY="2" shadowBlur="4" shadowOpacity="160" blurEnabled="0" blurRadius="4" transform="matrix(0.287099,0,0,0.287049,238.336,378.168)" pers-center="0,0" pers-size="0,0" pers-start="0,0" pers-end="0,0" locked="0" mesh="" flag=""/>
            <path id="shapePath20" d="M251.581,337.863 C251.581,337.863 254.388,337.991 254.643,346.539 C254.643,346.539 252.22,350.494 254.516,351.386 C254.516,351.386 254.771,354.193 255.409,354.193 C255.409,354.193 261.789,353.3 264.596,340.032 C264.596,340.032 269.7,342.711 264.596,353.556 L265.872,354.193 C265.872,354.193 267.659,351.897 267.403,351.004 C267.403,351.004 269.445,350.494 266.765,356.617 C264.086,362.741 266.765,357.383 266.765,357.383 C266.765,357.383 267.148,364.655 266.765,365.548 C266.383,366.441 267.02,366.059 269.573,361.465 C269.573,361.465 272.252,365.676 267.403,372.692 C267.403,372.692 265.617,375.499 265.872,377.158 C266.128,378.815 264.596,380.73 264.596,380.73 C264.596,380.73 266,382.261 271.104,377.285 C271.104,377.285 271.232,381.878 269.573,383.791 C269.573,383.791 266.128,385.067 265.872,387.618 C265.872,387.618 266.637,385.322 260.257,391.829 C260.257,391.829 258.981,393.87 260.257,393.87 C260.257,393.87 262.685,394.508 261.344,396.167 C261.344,396.167 260.003,399.87 260.896,401.208 C260.896,401.208 260.512,402.035 262.299,404.332 C262.299,404.332 266.637,408.287 266.765,408.542 C266.893,408.796 266,410.455 260.896,413.39 C260.896,413.39 258.728,413.518 261.344,415.558 C261.344,415.558 254.516,417.727 254.005,418.365 C253.495,419.003 253.368,416.579 252.602,417.599 C251.837,418.621 254.516,416.197 249.539,417.599 C249.539,417.599 247.625,417.471 247.88,416.834 C248.136,416.197 244.181,411.978 241.245,413.645 C241.245,413.645 237.801,414.793 237.801,413.39 C237.801,413.39 237.162,411.093 238.821,407.52 C238.821,407.52 233.717,405.863 233.717,404.332 C233.717,404.332 231.867,402.666 231.484,401.588 C231.101,400.512 223.372,396.804 223.377,396.549 C223.382,396.294 220.704,394.846 220.829,394.508 C221.26,393.347 213.154,394.533 208.835,389.405 C208.785,389.194 204.971,389.448 205.645,389.405 C206.699,389.338 207.49,386.872 207.432,386.726 C207.432,386.726 213.067,383.6 222.249,388.32 C224.127,389.286 226.901,389.279 228.463,390.245 C230.238,391.342 234.014,387.463 233.08,387.109 C233.08,387.109 234.865,384.43 234.1,382.898 C234.1,382.898 232.431,380.347 223.377,381.367 C223.377,381.367 220.319,380.583 218.405,378.168 C218.405,378.168 216.619,376.01 215.598,376.01 C215.598,376.01 213.301,374.223 217.002,373.712 C217.002,373.712 223.858,368.87 233.845,374.862 C234.797,375.095 236.689,365.551 237.673,363.761 C238.329,364.065 245.338,354.282 247.88,351.833 C249.213,350.551 253.154,345.59 251.581,337.863 Z" style="stroke:none;fill-rule:evenodd;fill:#ffa726;fill-opacity:1;"/>
        </g>
        <g id="Shape21">
            <desc shapeID="21" type="0" basicInfo-basicType="0" basicInfo-roundedRectRadius="12" basicInfo-polygonSides="6" basicInfo-starPoints="5" bounding="rect(-91.1068,-110.644,182.213,221.287)" text="" font-familyName="" font-pixelSize="20" font-bold="0" font-underline="0" font-alignment="1" strokeStyle="0" markerStart="0" markerEnd="0" shadowEnabled="0" shadowOffsetX="0" shadowOffsetY="2" shadowBlur="4" shadowOpacity="160" blurEnabled="0" blurRadius="4" transform="matrix(0.287099,0,0,0.287049,279.878,439.932)" pers-center="0,0" pers-size="0,0" pers-start="0,0" pers-end="0,0" locked="0" mesh="" flag=""/>
            <path id="shapePath21" d="M266.844,408.678 C266.844,408.678 308.494,468.376 305.877,467.355 C305.877,467.355 307.214,469.141 302.11,471.437 C302.11,471.437 301.09,472.457 299.431,470.417 C297.772,468.376 253.721,418.325 253.721,418.325 C253.721,418.325 265.174,405.5 266.844,408.678 Z" style="stroke:none;fill-rule:evenodd;fill:#ffa726;fill-opacity:1;"/>
        </g>
        <g id="Shape22">
            <desc shapeID="22" type="0" basicInfo-basicType="0" basicInfo-roundedRectRadius="12" basicInfo-polygonSides="6" basicInfo-starPoints="5" bounding="rect(-88.4433,-121.106,176.887,242.211)" text="" font-familyName="" font-pixelSize="20" font-bold="0" font-underline="0" font-alignment="1" strokeStyle="0" markerStart="0" markerEnd="0" shadowEnabled="0" shadowOffsetX="0" shadowOffsetY="2" shadowBlur="4" shadowOpacity="160" blurEnabled="0" blurRadius="4" transform="matrix(0.287099,0,0,0.287049,231.038,372.435)" pers-center="0,0" pers-size="0,0" pers-start="0,0" pers-end="0,0" locked="0" mesh="" flag=""/>
            <path id="shapePath22" d="M239.076,406.5 C239.076,406.5 247.793,402.673 251.218,397.442 C251.218,397.442 251.07,395.656 250.561,395.401 C250.561,395.401 252.857,392.977 252.857,392.34 C252.857,392.34 256.558,385.45 254.005,384.302 L254.903,384.302 C254.903,384.302 254.516,381.495 256.43,379.326 C256.43,379.326 255.792,378.816 255.41,379.326 C255.027,379.837 252.601,383.664 252.474,385.067 C252.346,386.47 251.218,387.491 251.218,387.491 C251.218,387.491 249.284,388.002 249.667,384.812 C249.667,384.812 253.367,373.33 254.771,372.182 C254.771,372.182 256.047,369.248 255.027,369.503 C255.027,369.503 257.833,369.375 254.899,365.931 C254.899,365.931 257.068,367.844 255.664,363.635 C255.664,363.635 254.133,365.292 254.133,366.951 C254.133,366.951 253.367,367.716 251.964,366.823 C251.964,366.823 251.581,369.248 252.092,369.12 C252.601,368.992 251.453,368.992 250.561,367.589 C250.561,367.589 252.346,366.058 251.836,362.741 C251.836,362.741 254.133,361.72 253.112,359.807 C253.112,359.807 255.282,360.828 253.878,358.404 C253.878,358.404 256.685,358.786 253.751,355.214 C253.751,355.214 255.282,355.852 255.792,355.214 C256.302,354.576 254.133,353.81 255.41,351.259 C255.41,351.259 253.495,352.79 254.899,344.498 C254.899,344.498 252.984,336.332 251.581,337.863 C251.581,337.863 249.795,348.069 246.732,351.259 C246.732,351.259 235.376,361.848 233.844,374.861 C233.844,374.861 236.652,385.45 230.782,389.405 C230.782,389.405 228.74,391.19 222.616,387.746 C222.616,387.746 218.405,381.113 207.432,386.725 C207.432,386.725 205.646,388.385 205.646,389.405 C205.646,389.405 208.197,389.915 208.835,389.405 C208.835,389.405 211.387,394.763 220.829,394.508 C220.829,394.508 238.055,410.71 239.076,406.5 Z" style="stroke:none;fill-rule:evenodd;fill:#ee726e;fill-opacity:1;"/>
        </g>
    </g>
</svg>
